# xmcd
#
# Track frame offsets:
#        182
#        18145
#        40540
#        58877
#        73932
#        96995
#        116867
#        140162
#        163970
#        179532
#        198095
#        226695
#        242360
#        255145
#
# Disc length: 3773 seconds
#
# Revision: 0
# Processed by: cddbd v1.5.1PL0 Copyright (c) Steve Scherf et al.
# Submitted via: ExactAudioCopy v0.95a3
#
DISCID=bc0ebb0e
DTITLE=Happy Mondays - Pills'n Thrills And Bellyaches
DYEAR=1900
DGENRE=
TTITLE0=Kinky Afro
TTITLE1=God's Cop
TTITLE2=Donovan
TTITLE3=Grandbags Funeral
TTITLE4=Loose Fit
TTITLE5=Dennis And Lois
TTITLE6=Bob's Yer Uncle
TTITLE7=Step On
TTITLE8=Holiday
TTITLE9=Harmony
TTITLE10=Hallelujah
TTITLE11=Clap Your Hands
TTITLE12=Holy Ghost
TTITLE13=Rave On
EXTD=
EXTT0=
EXTT1=
EXTT2=
EXTT3=
EXTT4=
EXTT5=
EXTT6=
EXTT7=
EXTT8=
EXTT9=
EXTT10=
EXTT11=
EXTT12=
EXTT13=
PLAYORDER=
